<?xml version="1.0" encoding="UTF-8"?>
<svg id="Calque_1" data-name="Calque 1" xmlns="http://www.w3.org/2000/svg" viewBox="0 0 35.92 99.68">
  <defs>
    <style>
      .cls-1 {
        fill: #fff;
      }
    </style>
  </defs>
  <path class="cls-1" d="M18.44,8.2c-.03,4.32-.06,8.65-.09,12.97-.03,3.72-.75,8.67,2.52,11.32,1.71,1.38,4.1,1.91,6.11.84,1.82-.97,2.54-2.85,3.3-4.64,1.64-3.86,2.94-7.84,3.84-11.93.99-4.55,1.52-9.2,1.58-13.85h-6c.43,22.57.87,45.54-4.35,67.66-1.28,5.43-2.9,10.79-4.93,16-.76,1.96-1.68,4.46-2.88,5.91-.63.76-1.05,1.1-1.57,1.21-.29.07-.32.09-.81-.1-.3-.12-.67-.39-.97-.63-3.5-2.83-5.83-7.56-7.05-11.77-1.29-4.43-1.54-9.17-.52-13.64,2.18-9.62,9.82-17.52,19.26-20.19,3.71-1.05,2.13-6.84-1.6-5.79-10.23,2.9-18.58,10.73-22.33,20.65s-1.89,22.53,4.68,31.21c1.77,2.33,3.76,4.75,6.58,5.81s5.97.1,8.11-2.03c2-2,3.08-4.62,4.13-7.18,1.16-2.83,2.2-5.71,3.13-8.63,3.75-11.78,5.62-24.1,6.55-36.41,1.05-14,.83-28.06.56-42.09-.07-3.86-5.95-3.87-6,0-.11,8.22-1.79,16.51-5.15,24.03-.15.33-.41.71-.5,1.06-.18.33-.23.41-.15.24.18-.18.39-.28.63-.32.07-.05.35.09.3.12-.13.09-.35-.5-.36-.52-.44-1.57-.15-3.66-.14-5.35.03-4.66.06-9.31.09-13.97.03-3.86-5.97-3.87-6,0h0Z"/>
</svg>